<mxfile host="app.diagrams.net" modified="2021-05-24T15:44:20.445Z" agent="5.0 (Windows NT 10.0; Win64; x64) AppleWebKit/537.36 (KHTML, like Gecko) Chrome/90.0.4430.212 Safari/537.36" etag="s11EVo7iN7RVhNCo-gGu" version="14.7.0" type="github">
  <diagram id="90IDWgGwv996NUTPNuem" name="Page-1">
    <mxGraphModel dx="1038" dy="561" grid="1" gridSize="10" guides="1" tooltips="1" connect="1" arrows="1" fold="1" page="1" pageScale="1" pageWidth="850" pageHeight="1100" math="0" shadow="0">
      <root>
        <mxCell id="0" />
        <mxCell id="1" parent="0" />
        <mxCell id="Drm-NwM3W-UP_SvnV5Tc-9" value="" style="rounded=0;whiteSpace=wrap;html=1;fontFamily=Noto Serif SC;fontSource=https%3A%2F%2Ffonts.googleapis.com%2Fcss%3Ffamily%3DNoto%2BSerif%2BSC;" parent="1" vertex="1">
          <mxGeometry x="120" y="650" width="640" height="330" as="geometry" />
        </mxCell>
        <mxCell id="6kvlaEkvdR_WCjKz4TJ5-9" value="管理员" style="shape=umlActor;verticalLabelPosition=bottom;verticalAlign=top;html=1;outlineConnect=0;fontFamily=Noto Serif SC;fontSource=https%3A%2F%2Ffonts.googleapis.com%2Fcss%3Ffamily%3DNoto%2BSerif%2BSC;" parent="1" vertex="1">
          <mxGeometry x="50" y="800" width="30" height="60" as="geometry" />
        </mxCell>
        <mxCell id="6kvlaEkvdR_WCjKz4TJ5-13" value="用户管理" style="ellipse;whiteSpace=wrap;html=1;fontFamily=Noto Serif SC;fontSource=https%3A%2F%2Ffonts.googleapis.com%2Fcss%3Ffamily%3DNoto%2BSerif%2BSC;" parent="1" vertex="1">
          <mxGeometry x="160" y="800" width="120" height="40" as="geometry" />
        </mxCell>
        <mxCell id="6kvlaEkvdR_WCjKz4TJ5-15" value="" style="endArrow=classic;html=1;exitX=1;exitY=0.3333333333333333;exitDx=0;exitDy=0;exitPerimeter=0;entryX=0;entryY=0.5;entryDx=0;entryDy=0;fontFamily=Noto Serif SC;fontSource=https%3A%2F%2Ffonts.googleapis.com%2Fcss%3Ffamily%3DNoto%2BSerif%2BSC;" parent="1" source="6kvlaEkvdR_WCjKz4TJ5-9" target="6kvlaEkvdR_WCjKz4TJ5-13" edge="1">
          <mxGeometry width="50" height="50" relative="1" as="geometry">
            <mxPoint x="550" y="800" as="sourcePoint" />
            <mxPoint x="600" y="750" as="targetPoint" />
          </mxGeometry>
        </mxCell>
        <mxCell id="6kvlaEkvdR_WCjKz4TJ5-18" value="登录验证" style="ellipse;whiteSpace=wrap;html=1;fontFamily=Noto Serif SC;fontSource=https%3A%2F%2Ffonts.googleapis.com%2Fcss%3Ffamily%3DNoto%2BSerif%2BSC;" parent="1" vertex="1">
          <mxGeometry x="560" y="680" width="130" height="40" as="geometry" />
        </mxCell>
        <mxCell id="6kvlaEkvdR_WCjKz4TJ5-22" value="密码修改" style="ellipse;whiteSpace=wrap;html=1;fontFamily=Noto Serif SC;fontSource=https%3A%2F%2Ffonts.googleapis.com%2Fcss%3Ffamily%3DNoto%2BSerif%2BSC;" parent="1" vertex="1">
          <mxGeometry x="560" y="830" width="130" height="40" as="geometry" />
        </mxCell>
        <mxCell id="6kvlaEkvdR_WCjKz4TJ5-23" value="基本信息修改" style="ellipse;whiteSpace=wrap;html=1;fontFamily=Noto Serif SC;fontSource=https%3A%2F%2Ffonts.googleapis.com%2Fcss%3Ffamily%3DNoto%2BSerif%2BSC;" parent="1" vertex="1">
          <mxGeometry x="560" y="900" width="130" height="40" as="geometry" />
        </mxCell>
        <mxCell id="6kvlaEkvdR_WCjKz4TJ5-31" value="&amp;lt;&amp;lt;包含&amp;gt;&amp;gt;" style="endArrow=open;endSize=12;dashed=1;html=1;entryX=0;entryY=0.5;entryDx=0;entryDy=0;exitX=1;exitY=0.5;exitDx=0;exitDy=0;fontFamily=Noto Serif SC;fontSource=https%3A%2F%2Ffonts.googleapis.com%2Fcss%3Ffamily%3DNoto%2BSerif%2BSC;" parent="1" source="6kvlaEkvdR_WCjKz4TJ5-13" target="6kvlaEkvdR_WCjKz4TJ5-18" edge="1">
          <mxGeometry width="160" relative="1" as="geometry">
            <mxPoint x="330" y="670" as="sourcePoint" />
            <mxPoint x="509.142399208044" y="825.8258324824862" as="targetPoint" />
            <Array as="points" />
          </mxGeometry>
        </mxCell>
        <mxCell id="6kvlaEkvdR_WCjKz4TJ5-32" value="&amp;lt;&amp;lt;包含&amp;gt;&amp;gt;" style="endArrow=open;endSize=12;dashed=1;html=1;entryX=0;entryY=0.5;entryDx=0;entryDy=0;exitX=1;exitY=0.5;exitDx=0;exitDy=0;fontFamily=Noto Serif SC;fontSource=https%3A%2F%2Ffonts.googleapis.com%2Fcss%3Ffamily%3DNoto%2BSerif%2BSC;" parent="1" source="6kvlaEkvdR_WCjKz4TJ5-13" target="6kvlaEkvdR_WCjKz4TJ5-22" edge="1">
          <mxGeometry width="160" relative="1" as="geometry">
            <mxPoint x="330" y="850" as="sourcePoint" />
            <mxPoint x="499.142399208044" y="935.8258324824862" as="targetPoint" />
            <Array as="points" />
          </mxGeometry>
        </mxCell>
        <mxCell id="6kvlaEkvdR_WCjKz4TJ5-33" value="&amp;lt;&amp;lt;包含&amp;gt;&amp;gt;" style="endArrow=open;endSize=12;dashed=1;html=1;entryX=0;entryY=0.5;entryDx=0;entryDy=0;exitX=1;exitY=0.5;exitDx=0;exitDy=0;fontFamily=Noto Serif SC;fontSource=https%3A%2F%2Ffonts.googleapis.com%2Fcss%3Ffamily%3DNoto%2BSerif%2BSC;" parent="1" source="6kvlaEkvdR_WCjKz4TJ5-13" target="6kvlaEkvdR_WCjKz4TJ5-23" edge="1">
          <mxGeometry width="160" relative="1" as="geometry">
            <mxPoint x="320" y="850" as="sourcePoint" />
            <mxPoint x="499.142399208044" y="935.8258324824862" as="targetPoint" />
            <Array as="points" />
          </mxGeometry>
        </mxCell>
        <mxCell id="6kvlaEkvdR_WCjKz4TJ5-35" value="用户管理用例图" style="text;html=1;strokeColor=none;fillColor=none;align=center;verticalAlign=middle;whiteSpace=wrap;rounded=0;fontFamily=Noto Serif SC;fontSource=https%3A%2F%2Ffonts.googleapis.com%2Fcss%3Ffamily%3DNoto%2BSerif%2BSC;" parent="1" vertex="1">
          <mxGeometry x="305" y="660" width="240" height="20" as="geometry" />
        </mxCell>
        <mxCell id="PJXatczQ9Mn6HB_uHDBW-1" value="查询用户信息" style="ellipse;whiteSpace=wrap;html=1;fontFamily=Noto Serif SC;fontSource=https%3A%2F%2Ffonts.googleapis.com%2Fcss%3Ffamily%3DNoto%2BSerif%2BSC;" parent="1" vertex="1">
          <mxGeometry x="560" y="760" width="130" height="40" as="geometry" />
        </mxCell>
        <mxCell id="PJXatczQ9Mn6HB_uHDBW-2" value="&amp;lt;&amp;lt;包含&amp;gt;&amp;gt;" style="endArrow=open;endSize=12;dashed=1;html=1;entryX=0;entryY=0.5;entryDx=0;entryDy=0;exitX=1;exitY=0.5;exitDx=0;exitDy=0;fontFamily=Noto Serif SC;fontSource=https%3A%2F%2Ffonts.googleapis.com%2Fcss%3Ffamily%3DNoto%2BSerif%2BSC;" parent="1" source="6kvlaEkvdR_WCjKz4TJ5-13" target="PJXatczQ9Mn6HB_uHDBW-1" edge="1">
          <mxGeometry width="160" relative="1" as="geometry">
            <mxPoint x="290" y="829.9999999999998" as="sourcePoint" />
            <mxPoint x="570" y="689.9999999999998" as="targetPoint" />
            <Array as="points" />
          </mxGeometry>
        </mxCell>
      </root>
    </mxGraphModel>
  </diagram>
</mxfile>
